<svg id="visual" viewBox="0 0 900 600" width="900" height="600" xmlns="http://www.w3.org/2000/svg" xmlns:xlink="http://www.w3.org/1999/xlink" version="1.1"><rect x="0" y="0" width="900" height="600" fill="#EBE7E3"></rect><defs><linearGradient id="grad1_0" x1="33.3%" y1="0%" x2="100%" y2="100%"><stop offset="20%" stop-color="#EBE7E3" stop-opacity="1"></stop><stop offset="80%" stop-color="#EBE7E3" stop-opacity="1"></stop></linearGradient></defs><defs><linearGradient id="grad2_0" x1="0%" y1="0%" x2="66.7%" y2="100%"><stop offset="20%" stop-color="#EBE7E3" stop-opacity="1"></stop><stop offset="80%" stop-color="#EBE7E3" stop-opacity="1"></stop></linearGradient></defs><g transform="translate(900, 0)"><path d="M0 324.5C-29.2 303.5 -58.4 282.4 -88.1 271.1C-117.8 259.7 -148 257.9 -179.9 247.6C-211.8 237.2 -245.3 218.3 -262.5 190.7C-279.7 163.1 -280.6 126.9 -288.2 93.6C-295.8 60.4 -310.1 30.2 -324.5 0L0 0Z" fill="#F4F4F4"></path></g><g transform="translate(0, 600)"><path d="M0 -324.5C36.2 -324.1 72.4 -323.7 100.3 -308.6C128.1 -293.5 147.7 -263.6 176.9 -243.5C206.2 -223.4 245.1 -213.1 257.3 -186.9C269.4 -160.8 254.8 -118.8 261.5 -85C268.3 -51.2 296.4 -25.6 324.5 0L0 0Z" fill="#F4F4F4"></path></g></svg>