<svg id="svg" xmlns="http://www.w3.org/2000/svg" xmlns:xlink="http://www.w3.org/1999/xlink" width="64" height="64" viewBox="0, 0, 400,400">
    <g id="svgg">
        <path id="path0" d="M70.117 43.031 C 68.878 43.753,68.750 45.506,68.750 61.758 L 68.750 79.688 46.094 79.688 C 17.095 79.688,20.313 76.665,20.313 103.906 C 20.313 131.148,17.095 128.125,46.094 128.125 L 68.750 128.125 68.750 135.938 L 68.750 143.750 56.641 143.750 C 39.973 143.750,41.406 141.486,41.406 167.819 C 41.406 194.181,39.907 191.723,56.185 192.046 L 68.750 192.295 68.750 274.245 C 68.750 364.990,68.357 357.812,73.330 357.813 C 77.554 357.813,77.344 362.207,77.344 273.772 L 77.344 192.188 112.109 192.188 L 146.875 192.188 146.875 200.000 L 146.875 207.813 135.721 207.813 C 119.665 207.813,121.094 205.458,121.094 231.919 C 121.094 247.736,121.347 253.847,122.031 254.531 C 122.679 255.179,126.667 255.469,134.922 255.469 L 146.875 255.469 146.875 305.413 C 146.875 359.669,146.726 357.813,151.078 357.813 C 156.127 357.812,155.837 360.842,156.072 305.532 L 156.284 255.469 190.642 255.469 L 225.000 255.469 225.000 263.672 L 225.000 271.875 215.234 271.875 C 201.319 271.875,202.344 269.995,202.344 295.529 C 202.344 321.512,201.308 319.531,214.888 319.531 L 225.000 319.531 225.000 337.379 C 225.000 356.755,225.236 357.813,229.554 357.813 C 234.012 357.812,234.375 356.254,234.375 337.109 L 234.375 319.531 268.750 319.531 L 303.125 319.531 303.125 337.379 C 303.125 356.996,303.321 357.813,308.025 357.813 C 312.124 357.812,312.500 356.060,312.500 336.936 L 312.500 319.531 344.866 319.531 C 373.248 319.531,377.383 319.380,378.460 318.304 C 380.471 316.293,380.287 275.003,378.259 273.168 C 376.978 272.009,373.499 271.875,344.665 271.875 L 312.500 271.875 312.500 263.672 L 312.500 255.469 322.500 255.469 C 335.536 255.469,334.375 257.770,334.375 231.931 C 334.375 205.582,335.500 207.813,322.210 207.813 L 312.500 207.813 312.500 126.736 C 312.500 37.582,312.751 42.187,307.889 42.187 C 302.809 42.188,303.125 36.606,303.125 126.429 L 303.125 207.813 268.750 207.813 L 234.375 207.813 234.375 126.563 C 234.375 36.210,234.726 42.188,229.418 42.188 C 224.741 42.188,225.000 37.243,225.000 126.429 L 225.000 207.813 190.625 207.813 L 156.250 207.813 156.250 200.059 L 156.250 192.306 167.252 192.051 C 181.718 191.717,180.469 194.041,180.469 167.473 C 180.469 141.551,181.751 143.750,166.640 143.750 L 156.284 143.750 156.072 94.077 C 155.837 39.203,156.124 42.187,151.078 42.188 C 146.728 42.188,146.875 40.367,146.875 94.196 L 146.875 143.750 112.109 143.750 L 77.344 143.750 77.344 135.938 L 77.344 128.125 97.482 128.125 C 124.016 128.125,121.094 131.123,121.094 103.906 C 121.094 76.690,124.016 79.687,97.482 79.688 L 77.344 79.688 77.344 62.165 C 77.344 41.952,76.375 39.387,70.117 43.031 M111.719 103.906 L 111.719 118.750 70.703 118.750 L 29.688 118.750 29.688 103.906 L 29.688 89.063 70.703 89.063 L 111.719 89.063 111.719 103.906 M171.094 167.969 L 171.094 182.813 110.938 182.813 L 50.781 182.813 50.781 167.969 L 50.781 153.125 110.938 153.125 L 171.094 153.125 171.094 167.969 M325.781 232.031 L 325.781 246.875 228.125 246.875 L 130.469 246.875 130.469 232.031 L 130.469 217.188 228.125 217.188 L 325.781 217.188 325.781 232.031 M303.125 263.672 L 303.125 271.875 268.750 271.875 L 234.375 271.875 234.375 263.672 L 234.375 255.469 268.750 255.469 L 303.125 255.469 303.125 263.672 M370.313 296.094 L 370.313 310.938 291.016 310.938 L 211.719 310.938 211.719 296.094 L 211.719 281.250 291.016 281.250 L 370.313 281.250 370.313 296.094 " stroke="none" fill='currentColor' fill-rule="evenodd"></path>
    </g>
</svg>